<svg xmlns="http://www.w3.org/2000/svg" width="50" height="50" viewBox="0 0 50 50"><defs><style>.a,.b{fill:#9c9d9d;}.a{mix-blend-mode:screen;isolation:isolate;}</style></defs><rect class="a" width="50" height="50"/><g transform="translate(-35.67 -66.014)"><path class="b" d="M68.564,81.987a2.962,2.962,0,0,0-5.584,0H48v1.975H62.979a2.962,2.962,0,0,0,5.584,0H73.67V81.987Z" transform="translate(0 0)"/><path class="b" d="M55.9,208a2.967,2.967,0,0,0-2.792,1.975H48v1.975h5.106a2.962,2.962,0,0,0,5.584,0H73.67v-1.975H58.691A2.967,2.967,0,0,0,55.9,208Z" transform="translate(0 -120.089)"/><path class="b" d="M65.771,336a2.967,2.967,0,0,0-2.792,1.975H48v1.975H62.979a2.962,2.962,0,0,0,5.584,0H73.67v-1.975H68.564A2.967,2.967,0,0,0,65.771,336Z" transform="translate(0 -240.19)"/></g></svg>